<?xml version="1.0" encoding="UTF-8" standalone="no"?>
<!DOCTYPE svg PUBLIC "-//W3C//DTD SVG 1.1//EN" "http://www.w3.org/Graphics/SVG/1.1/DTD/svg11.dtd">
<svg width="100%" height="100%" viewBox="0 0 746 746" version="1.1" xmlns="http://www.w3.org/2000/svg" xmlns:xlink="http://www.w3.org/1999/xlink" xml:space="preserve" xmlns:serif="http://www.serif.com/" style="fill-rule:evenodd;clip-rule:evenodd;stroke-linejoin:round;stroke-miterlimit:2;">
    <g transform="matrix(1,0,0,1,-667.048,-314.484)">
        <path d="M1040.03,314.484C1245.88,314.484 1413,481.61 1413,687.461C1413,893.312 1245.88,1060.44 1040.03,1060.44C834.173,1060.44 667.048,893.312 667.048,687.461C667.048,481.61 834.173,314.484 1040.03,314.484ZM984.346,474.418L1093.63,474.418L1093.64,633.931L1253.51,634.035L1253.51,742.047L1093.66,741.923L1093.68,900.504L985.442,900.504L985.467,741.905L826.539,741.954L826.539,633.76L985.532,633.796L984.346,474.418Z"/>
    </g>
</svg>
