<?xml version="1.0" encoding="UTF-8" standalone="no"?>
<!DOCTYPE svg PUBLIC "-//W3C//DTD SVG 1.1//EN" "http://www.w3.org/Graphics/SVG/1.1/DTD/svg11.dtd">
<svg width="100%" height="100%" viewBox="0 0 722 698" version="1.1" xmlns="http://www.w3.org/2000/svg" xmlns:xlink="http://www.w3.org/1999/xlink" xml:space="preserve" xmlns:serif="http://www.serif.com/" style="fill-rule:evenodd;clip-rule:evenodd;stroke-linecap:round;stroke-linejoin:round;stroke-miterlimit:1.5;">
    <g transform="matrix(1,0,0,1,-514.245,-358.077)">
        <g transform="matrix(1.173,0,0,1.29523,-245.72,-130.285)">
            <path d="M1240.4,462.896C1240.4,426.687 1207.94,397.289 1167.96,397.289L742.68,397.289C702.697,397.289 670.236,426.687 670.236,462.896L670.236,829.472C670.236,865.681 702.697,895.079 742.68,895.079L1167.96,895.079C1207.94,895.079 1240.4,865.681 1240.4,829.472L1240.4,462.896Z" style="fill:none;stroke:black;stroke-width:42.44px;"/>
        </g>
        <g transform="matrix(0.895827,0,0,0.925753,54.741,126.042)">
            <path d="M1288.65,315.689C1288.65,299.825 1275.34,286.945 1258.95,286.945L570.168,286.945C553.774,286.945 540.464,299.825 540.464,315.689L540.464,434.451C540.464,450.315 553.774,463.194 570.168,463.194L1258.95,463.194C1275.34,463.194 1288.65,450.315 1288.65,434.451L1288.65,315.689Z"/>
        </g>
        <g transform="matrix(1,0,0,1,9.47386,138.518)">
            <rect x="598.035" y="603.82" width="81.697" height="81.697"/>
        </g>
        <g transform="matrix(1,0,0,1,9.47386,274.42)">
            <rect x="598.035" y="603.82" width="81.697" height="81.697"/>
        </g>
        <g transform="matrix(1,0,0,1,121.37,5.95492)">
            <rect x="598.035" y="603.82" width="81.697" height="81.697"/>
        </g>
        <g transform="matrix(1,0,0,1,121.37,138.518)">
            <rect x="598.035" y="603.82" width="81.697" height="81.697"/>
        </g>
        <g transform="matrix(1,0,0,1,121.37,274.42)">
            <rect x="598.035" y="603.82" width="81.697" height="81.697"/>
        </g>
        <g transform="matrix(1,0,0,1,233.266,5.95492)">
            <rect x="598.035" y="603.82" width="81.697" height="81.697"/>
        </g>
        <g transform="matrix(1,0,0,1,233.266,140.187)">
            <rect x="598.035" y="603.82" width="81.697" height="81.697"/>
        </g>
        <g transform="matrix(1,0,0,1,233.266,274.42)">
            <rect x="598.035" y="603.82" width="81.697" height="81.697"/>
        </g>
        <g transform="matrix(1,0,0,1,345.162,5.95492)">
            <rect x="598.035" y="603.82" width="81.697" height="81.697"/>
        </g>
        <g transform="matrix(1,0,0,1,345.162,138.518)">
            <rect x="598.035" y="603.82" width="81.697" height="81.697"/>
        </g>
        <g transform="matrix(1,0,0,1,457.058,5.95492)">
            <rect x="598.035" y="603.82" width="81.697" height="81.697"/>
        </g>
        <g transform="matrix(1,0,0,1,457.058,138.518)">
            <rect x="598.035" y="603.82" width="81.697" height="81.697"/>
        </g>
    </g>
</svg>
