<?xml version="1.0" encoding="UTF-8" standalone="no"?>
<!DOCTYPE svg PUBLIC "-//W3C//DTD SVG 1.1//EN" "http://www.w3.org/Graphics/SVG/1.1/DTD/svg11.dtd">
<svg width="100%" height="100%" viewBox="0 0 742 717" version="1.1" xmlns="http://www.w3.org/2000/svg" xmlns:xlink="http://www.w3.org/1999/xlink" xml:space="preserve" xmlns:serif="http://www.serif.com/" style="fill-rule:evenodd;clip-rule:evenodd;stroke-linecap:round;stroke-linejoin:round;stroke-miterlimit:1.5;">
    <g transform="matrix(1,0,0,1,-722.891,-435.132)">
        <path d="M1464,655.89C1464,605.175 1421.99,564 1370.24,564L957.765,564C906.015,564 864,605.175 864,655.89L864,1060.11C864,1110.83 906.015,1152 957.765,1152L1370.24,1152C1421.99,1152 1464,1110.83 1464,1060.11L1464,655.89ZM1386,942L954,942L954,990L1386,990L1386,942ZM1386,825L954,825L954,873L1386,873L1386,825ZM1386,708L954,708L954,756L1386,756L1386,708Z"/>
        <path d="M924,1068C820.952,1069.73 816,996 816,996C815.44,905.886 816,600 816,600C819.232,527.984 900,516 900,516C1003.76,513.449 1272,516 1272,516C1359.53,516.609 1368,600 1368,600" style="fill:none;stroke:black;stroke-width:40px;"/>
        <path d="M816,1008C744.057,1008.29 744,924 744,924C741.504,842.699 744,552 744,552C745.439,460.456 831,456 831,456C878.467,454.047 1209,456 1209,456C1280.06,456.575 1296,519 1296,519" style="fill:none;stroke:black;stroke-width:40px;"/>
    </g>
</svg>
