<?xml version="1.0" encoding="UTF-8" standalone="no"?>
<!DOCTYPE svg PUBLIC "-//W3C//DTD SVG 1.1//EN" "http://www.w3.org/Graphics/SVG/1.1/DTD/svg11.dtd">
<svg width="100%" height="100%" viewBox="0 0 696 599" version="1.1" xmlns="http://www.w3.org/2000/svg" xmlns:xlink="http://www.w3.org/1999/xlink" xml:space="preserve" xmlns:serif="http://www.serif.com/" style="fill-rule:evenodd;clip-rule:evenodd;stroke-linecap:round;stroke-linejoin:round;stroke-miterlimit:1.5;">
    <g transform="matrix(1,0,0,1,-674.81,-402.805)">
        <g transform="matrix(1,0,0,1,610.162,-86.9598)">
            <path d="M412.243,515.765L412.133,801.062" style="fill:none;stroke:black;stroke-width:52px;"/>
        </g>
        <g transform="matrix(1,0,0,1.04668,610.782,-213.712)">
            <path d="M498.849,801.062C498.849,801.062 411.822,892.365 412.243,892.066C412.664,891.767 324.397,801.062 324.397,801.062" style="fill:none;stroke:black;stroke-width:50.8px;"/>
        </g>
        <path d="M948,516L862,516L700.81,727.054L700.81,974.886L1344.59,974.886L1344.59,727.054L1184,515.765L1096,516" style="fill:none;stroke:black;stroke-width:52px;"/>
        <path d="M700.81,727.054L700.81,972L1344,974.886L1344,727.054L1200,727.054L1109.63,850L936,850L852,726L700.81,727.054Z"/>
    </g>
</svg>
