<?xml version="1.0" encoding="UTF-8" standalone="no"?>
<!DOCTYPE svg PUBLIC "-//W3C//DTD SVG 1.1//EN" "http://www.w3.org/Graphics/SVG/1.1/DTD/svg11.dtd">
<svg width="100%" height="100%" viewBox="0 0 746 746" version="1.1" xmlns="http://www.w3.org/2000/svg" xmlns:xlink="http://www.w3.org/1999/xlink" xml:space="preserve" xmlns:serif="http://www.serif.com/" style="fill-rule:evenodd;clip-rule:evenodd;stroke-linejoin:round;stroke-miterlimit:2;">
    <g transform="matrix(1,0,0,1,-667.121,-314.558)">
        <g transform="matrix(0.707107,0.707107,-0.707107,0.707107,790.724,-534.056)">
            <path d="M1040.03,314.484C1245.88,314.484 1413,481.61 1413,687.461C1413,893.312 1245.88,1060.44 1040.03,1060.44C834.173,1060.44 667.048,893.312 667.048,687.461C667.048,481.61 834.173,314.484 1040.03,314.484ZM984.571,504.641C984.512,496.646 987.646,488.958 993.278,483.284C998.911,477.609 1006.58,474.418 1014.57,474.418C1029.86,474.418 1048.37,474.418 1063.63,474.418C1080.2,474.418 1093.63,487.848 1093.63,504.415C1093.64,550.621 1093.64,633.931 1093.64,633.931C1093.64,633.931 1177.24,633.985 1223.53,634.015C1240.09,634.026 1253.51,647.454 1253.51,664.015L1253.51,712.024C1253.51,719.984 1250.35,727.619 1244.72,733.245C1239.09,738.872 1231.45,742.03 1223.49,742.024C1177.19,741.988 1093.66,741.923 1093.66,741.923C1093.66,741.923 1093.67,824.529 1093.68,870.501C1093.68,878.458 1090.52,886.09 1084.89,891.716C1079.27,897.343 1071.63,900.504 1063.68,900.504C1048.64,900.504 1030.48,900.504 1015.45,900.504C1007.49,900.504 999.858,897.343 994.232,891.716C988.606,886.089 985.446,878.457 985.447,870.499C985.454,824.522 985.467,741.905 985.467,741.905C985.467,741.905 902.609,741.93 856.548,741.944C848.59,741.947 840.957,738.787 835.329,733.161C829.701,727.535 826.539,719.903 826.539,711.944C826.539,696.923 826.539,678.788 826.539,663.767C826.539,655.809 829.7,648.177 835.328,642.551C840.955,636.925 848.588,633.765 856.545,633.767C902.622,633.777 985.532,633.796 985.532,633.796C985.532,633.796 984.915,550.858 984.571,504.641Z"/>
        </g>
    </g>
</svg>
