<?xml version="1.0" encoding="UTF-8" standalone="no"?>
<!DOCTYPE svg PUBLIC "-//W3C//DTD SVG 1.1//EN" "http://www.w3.org/Graphics/SVG/1.1/DTD/svg11.dtd">
<svg width="100%" height="100%" viewBox="0 0 798 807" version="1.1" xmlns="http://www.w3.org/2000/svg" xmlns:xlink="http://www.w3.org/1999/xlink" xml:space="preserve" xmlns:serif="http://www.serif.com/" style="fill-rule:evenodd;clip-rule:evenodd;stroke-linejoin:round;stroke-miterlimit:2;">
    <g transform="matrix(1,0,0,1,-581.208,-407.216)">
        <g transform="matrix(0.434731,0,0,0.434731,753.186,573.018)">
            <path d="M868.892,1186.3C890.666,1190.21 913.097,1192.25 936,1192.25C1144.62,1192.25 1314,1022.87 1314,814.249C1314,780.828 1309.65,748.414 1301.49,717.542C1293.05,685.985 1311.77,653.553 1343.33,645.098C1343.32,645.075 1343.32,645.075 1343.33,645.075C1360.64,640.436 1379.09,642.949 1394.52,652.05C1409.96,661.15 1421.1,676.074 1425.42,693.466C1434.94,732.167 1440,772.622 1440,814.249C1440,1092.41 1214.16,1318.25 936,1318.25C889.96,1318.25 845.353,1312.06 802.972,1300.48C802.972,1300.48 765.26,1365.8 736.113,1416.28C730.531,1425.95 719.674,1431.3 708.605,1429.85C697.536,1428.39 688.435,1420.41 685.545,1409.62C668.14,1344.66 641.385,1244.81 623.764,1179.05C613.9,1142.24 635.746,1104.4 672.56,1094.54C738.322,1076.91 838.173,1050.16 903.131,1032.75C913.915,1029.86 925.377,1033.76 932.174,1042.61C938.97,1051.47 939.762,1063.55 934.18,1073.22C905.564,1122.78 868.892,1186.3 868.892,1186.3ZM1069.9,328.261C1069.9,328.261 1107.04,263.947 1135.89,213.975C1141.47,204.306 1152.33,198.952 1163.39,200.409C1174.46,201.866 1183.57,209.848 1186.45,220.632C1203.86,285.59 1230.62,385.44 1248.24,451.203C1258.1,488.016 1236.25,525.856 1199.44,535.72C1133.68,553.341 1033.83,580.096 968.869,597.501C958.085,600.391 946.623,596.5 939.826,587.642C933.03,578.785 932.238,566.706 937.82,557.037C966.747,506.934 1004.03,442.365 1004.03,442.365C981.961,438.348 959.224,436.249 936,436.249C727.376,436.249 558,605.625 558,814.249C558,856.43 564.924,897.006 577.693,934.896C582.599,949.448 581.267,965.381 574.014,978.917C566.761,992.453 554.232,1002.39 539.399,1006.36C539.398,1006.36 539.396,1006.36 539.395,1006.36C502.168,1016.34 463.77,994.848 452.802,957.902C439.267,912.363 432,864.148 432,814.249C432,536.084 657.835,310.249 936,310.249C982.361,310.249 1027.27,316.522 1069.9,328.261Z"/>
        </g>
        <g transform="matrix(0.895827,0,0,0.925753,121.704,175.181)">
            <path d="M1288.65,315.689C1288.65,299.825 1275.34,286.945 1258.95,286.945L570.168,286.945C553.774,286.945 540.464,299.825 540.464,315.689L540.464,434.451C540.464,450.315 553.774,463.194 570.168,463.194L1258.95,463.194C1275.34,463.194 1288.65,450.315 1288.65,434.451L1288.65,315.689Z"/>
        </g>
        <path d="M839.817,1104.41L692.404,1104.41C631.033,1104.41 581.208,1054.58 581.208,993.213L581.208,518.412C581.208,457.041 631.033,407.216 692.404,407.216L1191.25,407.216C1252.62,407.216 1302.45,457.041 1302.45,518.412L1302.45,603.747L1250.01,603.747L1250.01,518.412C1250.01,485.983 1223.68,459.655 1191.25,459.655C1191.25,459.655 692.404,459.655 692.404,459.655C659.975,459.655 633.647,485.983 633.647,518.412C633.647,518.412 633.647,993.213 633.647,993.213C633.647,1025.64 659.975,1051.97 692.404,1051.97L839.817,1051.97L839.817,1104.41Z"/>
    </g>
</svg>
